<svg width="17" height="16" viewBox="0 0 17 16" fill="none" xmlns="http://www.w3.org/2000/svg">
<g clip-path="url(#clip0_111_18375)">
<path d="M8.50882 2.13965L10.2281 5.88864L14.1859 6.43151L11.2906 9.29139L12.0175 13.3759L8.50882 11.3944L5.00018 13.3759L5.72704 9.29139L2.83173 6.43151L6.78959 5.88864L8.50882 2.13965Z" fill="url(#paint0_linear_111_18375)"/>
<path d="M15.9165 6.24459C16.1919 5.96266 16.0328 5.48738 15.6432 5.42794L11.0103 4.72112L8.94675 0.329432C8.77248 -0.0414517 8.24493 -0.0414509 8.07066 0.329432L6.00707 4.72112L1.3741 5.42795C0.984512 5.48739 0.825486 5.96264 1.10084 6.24458L4.46787 9.69214L3.67549 14.547C3.61042 14.9457 4.03353 15.2439 4.38714 15.0487L8.50871 12.7726L12.6302 15.0486C12.9838 15.2439 13.4069 14.9456 13.3418 14.5469L12.549 9.69212L15.9165 6.24459ZM8.50871 11.6029L4.7633 13.7027L5.47819 9.46575L2.2536 6.1741L6.61507 5.60691L8.50871 1.57113L10.3852 5.60694L14.7321 6.22353L11.5392 9.48139L12.2067 13.7184L8.50871 11.6029Z" fill="black"/>
</g>
<defs>
<linearGradient id="paint0_linear_111_18375" x1="-3.48404" y1="-5.6633" x2="16.3349" y2="-3.28383" gradientUnits="userSpaceOnUse">
<stop stop-color="#F64D4D"/>
<stop offset="1" stop-color="#4D5EF6"/>
</linearGradient>
<clipPath id="clip0_111_18375">
<rect width="16" height="16" fill="white" transform="translate(0.75)"/>
</clipPath>
</defs>
</svg>
